PathFileType	4	(X/Y/Z)	Run_200 02
DataRate	CameraRate	NumFrames	NumMarkers	Units	OrigDataRate	OrigDataStartFrame	OrigNumFrames
100	100	5	42	mm	100	183	128
Frame#	Time	RASI			LPSI			RPSI			RTH2			RTH3			LTH1			LTH2			LTH3			RTB1			RTB2			LTB1			LTB2			LTB3			RCAL			RMT5			LCAL			LTOE			LMT5			LACR			RACR			CLAV			C7			RUA1			RUA2			RUA3			RLEL			LUA1			LUA2			LUA3			LLEL			RFAsuperior			RFAradius			RFAulna			LFAsuperior			LFAradius			LFAulna			RTOE			RTH1			LMEL			RTB3			RMEL			LASI			
		X1	Y1	Z1	X2	Y2	Z2	X3	Y3	Z3	X4	Y4	Z4	X5	Y5	Z5	X6	Y6	Z6	X7	Y7	Z7	X8	Y8	Z8	X9	Y9	Z9	X10	Y10	Z10	X11	Y11	Z11	X12	Y12	Z12	X13	Y13	Z13	X14	Y14	Z14	X15	Y15	Z15	X16	Y16	Z16	X17	Y17	Z17	X18	Y18	Z18	X19	Y19	Z19	X20	Y20	Z20	X21	Y21	Z21	X22	Y22	Z22	X23	Y23	Z23	X24	Y24	Z24	X25	Y25	Z25	X26	Y26	Z26	X27	Y27	Z27	X28	Y28	Z28	X29	Y29	Z29	X30	Y30	Z30	X31	Y31	Z31	X32	Y32	Z32	X33	Y33	Z33	X34	Y34	Z34	X35	Y35	Z35	X36	Y36	Z36	X37	Y37	Z37	X38	Y38	Z38	X39	Y39	Z39	X40	Y40	Z40	X41	Y41	Z41	X42	Y42	Z42	

175	1.94	1027.473794	1031.096534	-229.588902	871.7400709999999	1086.226776	-418.375555	867.4198239999999	1083.274312	-305.602037	908.791287	763.783915	-208.394771	961.226089	612.09236	-222.635211	996.859603	898.316731	-530.824508	972.442332	738.55575	-497.778009	1066.988616	627.55328	-496.219377	964.690665	357.432073	-307.151768	878.588437	340.345464	-232.965489	1065.504798	420.977241	-438.326127	926.692728	422.837492	-489.53424	880.073623	307.347622	-440.294144	684.395114	113.432432	-312.897129	874.838374	51.124381	-249.64776	694.422556	317.372897	-411.718641	839.9039770000001	129.627452	-425.188022	774.063058	144.695965	-515.433268	1004.804471	1523.109787	-497.616573	1048.154603	1481.807955	-178.163374	1089.846983	1459.530404	-313.604053	966.940325	1532.693745	-335.206067	953.218583	1377.900926	-107.271382	998.1361419999999	1316.374112	-93.217251	940.413636	1234.92272	-48.773406	915.633604	1173.839969	-21.714769	890.507445	1442.173912	-544.59788	904.932101	1367.157944	-582.701428	821.4005100000001	1318.385951	-603.504788	792.513322	1257.738904	-628.000779	1010.822341	1120.081504	-40.085857	1147.120129	1088.514371	-156.591057	1133.662605	1039.401089	-109.619483	840.239742	1184.086708	-627.2833460000001	1001.676404	1121.884662	-544.764725	969.767543	1067.190998	-579.529049	922.257759	70.85878599999999	-347.034546	951.802231	912.503238	-181.573762	776.265608	1237.047645	-541.205056	854.239431	199.215237	-317.899284	905.380615	1151.400415	-108.505387	1032.846591	1022.317331	-467.563014	
176	1.95	1028.841152	1035.691339	-230.429597	872.881042	1092.412492	-418.283015	868.805728	1089.072998	-305.229762	902.745951	769.775926	-208.911871	949.118958	616.577074	-224.07276	997.558317	905.286978	-532.125685	975.436097	745.063816	-499.140776	1072.07934	635.874223	-496.168276	947.115041	360.985803	-307.115159	861.0444	344.654359	-233.594322	1076.44885	427.846951	-438.729592	937.364503	422.87649	-488.711995	896.897218	304.61616	-439.855398	666.742163	119.330465	-312.38085	855.016056	51.678977	-250.260969	710.678737	304.178006	-411.044605	867.485833	125.566096	-424.939714	800.229339	136.428103	-514.807743	1003.034538	1529.651604	-498.06381	1050.357134	1489.220017	-179.590829	1090.740055	1465.889613	-315.611157	967.534556	1538.433224	-335.487365	956.921792	1384.726421	-107.796012	1002.975902	1323.480265	-94.272525	947.831062	1241.090159	-49.353026	923.840437	1179.610769	-22.377733	887.02421	1450.796758	-543.136131	899.61985	1376.126436	-582.624186	815.4279780000001	1328.395412	-602.706324	785.0529780000001	1268.518725	-626.364813	1020.003513	1130.289438	-44.481322	1153.580399	1106.09657	-165.298151	1144.131534	1055.626191	-118.837814	833.442038	1196.163963	-626.582699	996.596809	1135.840731	-547.1814900000001	965.060253	1080.453088	-581.169221	902.846621	70.608043	-347.2619	951.691038	916.706936	-182.827324	770.228488	1247.479273	-539.564046	836.87037	203.04969	-318.217868	911.033982	1158.321493	-109.230833	1033.930058	1028.378675	-467.570304	
177	1.96	1030.614122	1041.045055	-231.13322	874.080656	1099.337313	-418.114449	870.495193	1095.490671	-304.794121	897.080143	776.489436	-209.543538	937.543333	622.113761	-225.36726	998.3937560000001	912.976461	-533.406064	978.042058	752.180345	-500.338083	1076.559957	644.675733	-496.10754	930.252988	365.67015	-307.046997	844.2261580000001	350.092527	-234.193158	1086.573068	434.799558	-439.226735	947.450997	422.601476	-487.541483	913.968147	301.785063	-439.230848	650.083496	126.911133	-311.841909	835.35515	52.201968	-250.963331	727.91529	290.035037	-409.368143	895.91153	121.864361	-425.418183	827.227151	128.563687	-514.224885	1001.704048	1536.441206	-498.812853	1052.54646	1497.087471	-181.115354	1091.767978	1472.912159	-317.78715	968.316718	1544.626296	-335.907356	960.374913	1392.279382	-108.358757	1007.529277	1331.136363	-95.46926000000001	954.6641049999999	1248.038729	-50.004442	931.303588	1186.177995	-23.217475	884.056121	1460.079564	-541.69206	894.962372	1385.453551	-582.451535	810.11905	1338.724501	-601.77588	778.207017	1279.635954	-624.557825	1027.961368	1140.823041	-48.752337	1158.630042	1124.102587	-173.843208	1153.206767	1072.700428	-127.759592	827.125016	1208.304092	-625.789482	992.107889	1150.163703	-549.117826	961.231144	1094.452733	-583.142552	883.554142	69.948576	-347.78022	951.898272	921.48892	-184.117207	764.876676	1258.137852	-537.747856	820.138119	208.039078	-318.469567	915.963449	1166.003499	-110.070406	1035.072213	1035.179207	-467.501593	
178	1.97	1032.677733	1046.776814	-231.73943	874.862528	1106.851471	-417.568765	872.486275	1102.325756	-304.339957	891.82037	783.729501	-210.184459	926.718166	628.478554	-226.344644	999.101983	921.121943	-534.600354	980.243521	759.748069	-501.377231	1080.143036	653.69372	-495.899746	914.134957	371.467109	-306.845851	828.246019	356.59671	-234.613737	1095.808463	441.683172	-439.397708	957.0868369999999	421.805357	-486.144461	931.273113	298.824771	-438.333081	634.583194	136.077393	-311.415906	815.928361	52.843005	-251.560449	746.336844	275.131303	-406.859439	925.023695	118.722565	-426.261886	855.053316	121.321252	-513.672238	1000.85643	1543.329974	-499.647042	1054.861152	1505.187815	-182.683384	1092.978184	1480.319227	-320.009256	969.271851	1551.099084	-336.484474	963.903531	1400.341724	-108.738923	1011.871019	1339.123692	-96.77552300000001	960.766114	1255.568788	-50.63828	937.984587	1193.261336	-24.144294	881.704744	1469.70391	-540.462169	891.10049	1394.813776	-582.195083	805.508464	1349.166733	-600.696204	772.054919	1290.852933	-622.56037	1034.878786	1151.578644	-52.878269	1162.410335	1142.206107	-181.983811	1160.822034	1090.19304	-136.209801	821.416741	1220.320626	-624.876719	988.2583	1164.528362	-550.822643	958.087496	1108.57739	-585.08665	864.337044	69.019723	-348.759082	952.120374	926.8059919999999	-185.298677	760.183396	1268.920749	-535.75473	804.015357	214.096245	-318.388303	920.458108	1174.094092	-110.969073	1035.796616	1042.569398	-467.055887	
179	1.98	1034.9343	1052.677985	-232.327703	875.173962	1114.726596	-416.629931	874.722722	1109.408922	-303.869645	887.018382	791.276482	-210.744637	916.675554	635.39471	-226.986677	999.472567	929.4220309999999	-535.718641	981.982427	767.568596	-502.165467	1082.498115	662.579383	-495.366332	898.813192	378.185727	-306.339405	813.1484	363.981413	-234.699139	1104.127206	448.473094	-439.032066	966.448022	420.328184	-484.689935	948.764093	295.703552	-437.054841	620.353874	146.523219	-311.178867	796.860176	53.87423	-251.834453	766.003303	259.715313	-403.797451	954.608967	116.233974	-426.915524	883.66801	114.805009	-513.159214	1000.483217	1550.319293	-500.376896	1057.382069	1513.279846	-184.322082	1094.381317	1487.869183	-322.135745	970.379697	1557.722173	-337.178769	967.5817970000001	1408.616944	-109.045802	1016.052636	1347.265443	-98.102552	966.1018299999999	1263.519573	-51.198469	943.929693	1200.714898	-25.034182	879.9849809999999	1479.36805	-539.694613	888.086464	1403.985911	-581.84667	801.593794	1359.572425	-599.412153	766.716446	1301.979388	-620.413987	1040.943148	1162.531657	-56.867636	1165.058677	1160.114524	-189.53174	1166.983856	1107.639152	-144.199706	816.486981	1232.155804	-623.7899609999999	985.0597289999999	1178.580118	-552.416577	955.48865	1122.339639	-586.775693	845.263	68.22994199999999	-349.926199	952.259484	932.52397	-186.316907	756.187984	1279.71127	-533.586106	788.719122	221.036367	-317.9659	924.5362	1182.359995	-111.776696	1036.050546	1050.320661	-466.217071	
